<svg width="512" height="512" viewBox="0 0 512 512" fill="none" xmlns="http://www.w3.org/2000/svg">
<rect width="512" height="512" fill="#1C2128"/>
<path d="M397.5 228.271C514.132 49.7052 119.891 155.161 185.373 287.493C212.187 341.681 263.572 335.521 285.644 329.881" stroke="#6CB6FF" stroke-width="28.9593" stroke-linecap="round"/>
<path d="M258.495 254.914C258.495 254.914 319.898 206.045 321.843 211.475C337.41 254.914 352.109 279.879 301.572 319.348C205.788 394.158 25.8099 416.563 119.009 273.014" stroke="#539BF5" stroke-width="28.9593" stroke-linecap="round"/>
<path d="M416.684 256C416.684 344.366 345.049 416 256.684 416C168.318 416 96.6836 344.366 96.6836 256C96.6836 167.634 168.318 96 256.684 96C345.049 96 416.684 167.634 416.684 256ZM135.47 256C135.47 322.944 189.739 377.213 256.684 377.213C323.628 377.213 377.897 322.944 377.897 256C377.897 189.056 323.628 134.787 256.684 134.787C189.739 134.787 135.47 189.056 135.47 256Z" fill="#255AB2"/>
<path d="M285.644 329.881C263.572 335.521 212.187 341.681 185.373 287.493C143.107 202.077 292.372 127.859 372.16 133.988" stroke="#6CB6FF" stroke-width="28.9593" stroke-linecap="round"/>
<path d="M258.496 254.914C258.496 254.914 319.899 206.045 321.845 211.475C337.411 254.914 352.11 279.879 301.574 319.349C254.307 356.265 186.538 380.42 141.211 378.169" stroke="#539BF5" stroke-width="28.9593" stroke-linecap="round"/>
</svg>
