<svg xmlns="http://www.w3.org/2000/svg" viewBox="0 0 400 500">
  <g fill="none" stroke="#555" stroke-width="4">
    <line x1="200" y1="60" x2="200" y2="140" />
    <line x1="200" y1="140" x2="200" y2="250" />
    <line x1="200" y1="250" x2="200" y2="360" />
    <line x1="200" y1="360" x2="200" y2="440" />

    <line x1="200" y1="60" x2="120" y2="140" />
    <line x1="200" y1="60" x2="280" y2="140" />
    <line x1="120" y1="140" x2="200" y2="250" />
    <line x1="280" y1="140" x2="200" y2="250" />

    <line x1="120" y1="140" x2="60" y2="200" />
    <line x1="280" y1="140" x2="340" y2="200" />
    <line x1="60" y1="200" x2="60" y2="300" />
    <line x1="340" y1="200" x2="340" y2="300" />

    <line x1="60" y1="300" x2="120" y2="360" />
    <line x1="340" y1="300" x2="280" y2="360" />
    <line x1="120" y1="360" x2="200" y2="440" />
    <line x1="280" y1="360" x2="200" y2="440" />

    <line x1="120" y1="140" x2="280" y2="360" />
    <line x1="280" y1="140" x2="120" y2="360" />
  </g>

  <g fill="#444">
    <circle cx="200" cy="60" r="25" />
    <circle cx="200" cy="250" r="25" />
    <circle cx="200" cy="440" r="25" />

    <circle cx="120" cy="140" r="20" />
    <circle cx="280" cy="140" r="20" />
    <circle cx="120" cy="360" r="20" />
    <circle cx="280" cy="360" r="20" />

    <circle cx="60" cy="200" r="15" />
    <circle cx="340" cy="200" r="15" />
    <circle cx="60" cy="300" r="15" />
    <circle cx="340" cy="300" r="15" />
  </g>
</svg>