<svg width="356" height="320" viewBox="0 0 356 320" fill="none" xmlns="http://www.w3.org/2000/svg">
<path d="M319.5 132.271C436.132 -46.2948 41.8913 59.1606 107.373 191.493C134.187 245.681 185.572 239.521 207.644 233.881" stroke="#79C0FF" stroke-width="28.9593" stroke-linecap="round"/>
<path d="M180.495 158.914C180.495 158.914 241.898 110.045 243.843 115.475C259.41 158.914 274.109 183.879 223.572 223.348C127.788 298.158 -52.1901 320.563 41.0087 177.014" stroke="#58A6FF" stroke-width="28.9593" stroke-linecap="round"/>
<path d="M338.684 160C338.684 248.366 267.049 320 178.684 320C90.318 320 18.6836 248.366 18.6836 160C18.6836 71.6344 90.318 0 178.684 0C267.049 0 338.684 71.6344 338.684 160ZM57.4704 160C57.4704 226.944 111.739 281.213 178.684 281.213C245.628 281.213 299.897 226.944 299.897 160C299.897 93.0558 245.628 38.7868 178.684 38.7868C111.739 38.7868 57.4704 93.0558 57.4704 160Z" fill="#1158C7"/>
<path d="M207.644 233.881C185.572 239.521 134.187 245.681 107.373 191.493C65.107 106.077 214.372 31.8591 294.16 37.9884" stroke="#79C0FF" stroke-width="28.9593" stroke-linecap="round"/>
<path d="M180.496 158.914C180.496 158.914 241.899 110.045 243.845 115.475C259.411 158.914 274.11 183.879 223.574 223.349C176.307 260.265 108.538 284.42 63.2109 282.169" stroke="#58A6FF" stroke-width="28.9593" stroke-linecap="round"/>
</svg>
